<svg xmlns="http://www.w3.org/2000/svg" width="18" height="18" viewBox="0 0 18 18" fill="none">
  <path d="M4.23744 11.3809H1.85649C1.19901 11.3809 0.666016 11.9139 0.666016 12.5713V16.1428C0.666016 16.8002 1.19901 17.3332 1.85649 17.3332H4.23744C4.89493 17.3332 5.42792 16.8002 5.42792 16.1428V12.5713C5.42792 11.9139 4.89493 11.3809 4.23744 11.3809Z" fill="#9AAEC0"/>
  <path d="M10.1906 6.61902H7.80962C7.15213 6.61902 6.61914 7.15201 6.61914 7.80949V16.1428C6.61914 16.8003 7.15213 17.3333 7.80962 17.3333H10.1906C10.8481 17.3333 11.381 16.8003 11.381 16.1428V7.80949C11.381 7.15201 10.8481 6.61902 10.1906 6.61902Z" fill="#9AAEC0"/>
  <path d="M16.1417 0.666626H13.7608C13.1033 0.666626 12.5703 1.19962 12.5703 1.8571V16.1428C12.5703 16.8003 13.1033 17.3333 13.7608 17.3333H16.1417C16.7992 17.3333 17.3322 16.8003 17.3322 16.1428V1.8571C17.3322 1.19962 16.7992 0.666626 16.1417 0.666626Z" fill="#9AAEC0"/>
</svg>
